<svg xmlns="http://www.w3.org/2000/svg" viewBox="0 0 200 200" role="img">
  <title>Brand Pattern</title>
  <rect width="200" height="200" fill="#FFFFFF" />
  <g stroke="#E5E5E5" stroke-width="1">
    <path d="M0 20H200M0 40H200M0 60H200M0 80H200M0 100H200M0 120H200M0 140H200M0 160H200M0 180H200" />
    <path d="M20 0V200M40 0V200M60 0V200M80 0V200M100 0V200M120 0V200M140 0V200M160 0V200M180 0V200" />
  </g>
  <circle cx="100" cy="100" r="55" fill="#FFD233" fill-opacity="0.18" />
  <circle cx="100" cy="100" r="38" fill="#FFD233" fill-opacity="0.35" />
  <circle cx="100" cy="100" r="22" fill="#FFD233" />
  <text x="100" y="108" font-size="26" text-anchor="middle" font-family="system-ui,Arial,sans-serif" fill="#1A1A1A" font-weight="600">البيّه</text>
</svg>
